<?xml version="1.0" standalone="no"?>
<!DOCTYPE svg PUBLIC "-//W3C//DTD SVG 20010904//EN"
 "http://www.w3.org/TR/2001/REC-SVG-20010904/DTD/svg10.dtd">
<svg version="1.0" xmlns="http://www.w3.org/2000/svg"
 width="512.000000pt" height="512.000000pt" viewBox="0 0 512.000000 512.000000"
 preserveAspectRatio="xMidYMid meet">

<g transform="translate(0.000000,512.000000) scale(0.100000,-0.100000)"
fill="#000000" stroke="none">
<path d="M2445 5109 c-72 -12 -158 -44 -234 -86 -98 -54 -234 -195 -301 -310
l-52 -93 -145 0 c-160 0 -192 -9 -212 -58 -8 -20 -11 -108 -9 -305 l3 -277 28
-27 c25 -25 35 -28 112 -32 l85 -3 0 -97 c0 -53 3 -119 6 -147 l6 -51 -45 -7
c-105 -16 -225 -106 -290 -217 -40 -68 -200 -468 -262 -654 -96 -289 -129
-458 -128 -665 1 -303 104 -490 349 -636 17 -10 17 -16 -4 -140 -26 -153 -39
-280 -48 -466 l-7 -138 -179 0 c-195 0 -224 -6 -246 -55 -8 -17 -12 -94 -12
-235 l0 -210 -390 0 c-424 0 -434 -1 -458 -55 -20 -44 -14 -75 22 -111 l34
-34 2486 0 c2133 0 2491 2 2515 14 66 35 66 137 0 172 -23 11 -100 14 -419 14
l-390 0 0 210 c0 141 -4 218 -12 235 -22 49 -50 55 -251 55 l-184 0 -6 158
c-8 172 -27 360 -52 491 -9 46 -15 84 -13 86 2 1 29 19 61 39 163 103 263 260
296 466 33 199 -10 479 -124 818 -57 166 -205 536 -251 623 -64 122 -187 218
-302 235 l-44 7 7 50 c4 27 8 94 8 148 l1 99 73 0 c84 0 123 15 141 55 8 18
12 110 12 306 l0 281 -29 29 -29 29 -156 0 -156 0 -26 53 c-159 314 -470 488
-779 436z m230 -204 c80 -21 148 -60 217 -123 52 -49 128 -141 128 -156 0 -3
-210 -6 -466 -6 l-465 0 18 32 c28 49 142 162 198 194 120 70 248 90 370 59z
m745 -635 l0 -150 -865 0 -865 0 0 150 0 150 865 0 865 0 0 -150z m-227 -402
c7 -58 -5 -195 -23 -273 -7 -27 -32 -92 -57 -144 -97 -203 -264 -311 -508
-327 -411 -28 -685 248 -685 691 l0 105 634 0 633 0 6 -52z m-1374 -505 c18
-38 44 -85 58 -105 l26 -38 -25 -32 c-49 -64 -159 -264 -204 -371 -140 -332
-124 -581 43 -687 61 -39 124 -59 219 -69 93 -11 114 -29 140 -118 38 -132 -7
-312 -95 -378 -53 -40 -285 -29 -441 22 -231 75 -334 230 -333 503 1 240 70
498 253 953 100 246 126 295 176 333 30 23 103 51 139 53 6 1 26 -29 44 -66z
m1607 41 c82 -29 114 -80 232 -374 211 -526 282 -849 238 -1083 -39 -203 -158
-320 -381 -377 -83 -22 -293 -38 -338 -26 -103 26 -176 206 -148 365 7 39 23
85 35 103 23 34 29 37 164 57 184 28 288 133 308 311 7 68 -16 210 -53 323
-35 105 -145 327 -216 436 l-55 85 28 40 c15 23 42 69 59 104 35 69 35 69 127
36z m-1212 -418 c112 -45 197 -60 346 -59 187 0 338 39 458 117 l52 35 56 -96
c74 -126 157 -300 185 -393 30 -96 33 -222 6 -262 -26 -38 -78 -59 -171 -70
-45 -5 -102 -19 -128 -30 -128 -55 -208 -231 -194 -428 13 -202 107 -364 246
-429 46 -21 73 -26 165 -29 66 -2 150 2 210 12 55 8 101 14 102 12 1 -1 11
-58 22 -127 22 -137 41 -353 41 -466 l0 -73 -321 0 -321 0 -29 -29 c-31 -31
-39 -83 -19 -122 27 -49 32 -49 605 -49 l535 0 0 -150 0 -150 -1500 0 -1500 0
0 150 0 150 529 0 c313 0 540 4 555 10 35 13 60 56 59 98 -1 27 -9 43 -32 64
l-31 28 -321 0 -321 0 6 138 c8 158 31 377 50 466 14 69 2 66 139 46 49 -7
137 -10 195 -8 93 3 114 8 162 32 146 75 240 256 240 466 0 144 -44 264 -123
337 -62 57 -77 64 -191 79 -161 23 -202 59 -200 178 2 125 70 307 196 523 l71
121 51 -32 c28 -18 82 -45 120 -60z"/>
<path d="M2319 3585 c-55 -30 -61 -110 -13 -156 25 -23 30 -24 236 -27 231 -3
259 1 283 49 24 45 19 87 -14 120 l-29 29 -219 0 c-169 -1 -224 -4 -244 -15z"/>
<path d="M3457 1939 c-21 -12 -47 -61 -47 -89 0 -60 64 -109 124 -94 33 8 76
58 76 89 0 77 -89 131 -153 94z"/>
<path d="M2248 2603 c-35 -22 -52 -63 -44 -106 22 -116 196 -91 196 29 0 16
-12 38 -34 60 -38 38 -75 44 -118 17z"/>
<path d="M1919 1121 c-49 -49 -38 -125 23 -157 66 -34 140 11 142 86 1 35 -4
47 -32 71 -44 40 -93 40 -133 0z"/>
<path d="M3079 1102 c-73 -66 -8 -192 87 -168 75 19 100 112 45 167 -40 39
-89 40 -132 1z"/>
<path d="M2489 671 c-49 -49 -38 -125 23 -157 66 -34 140 11 142 86 1 35 -4
47 -32 71 -44 40 -93 40 -133 0z"/>
</g>
</svg>
